<mxfile host="app.diagrams.net" modified="2024-03-20T22:45:28.532Z" agent="Mozilla/5.0 (Windows NT 10.0; Win64; x64) AppleWebKit/537.36 (KHTML, like Gecko) Chrome/122.0.0.0 Safari/537.36" version="22.1.21" etag="34_4nFpCGhJgUxPx2fm0" type="github">
  <diagram name="Page-1" id="x3I_8pLOe530PUujXMbG">
    <mxGraphModel>
      <root>
        <mxCell id="0" />
        <mxCell id="1" parent="0" />
      </root>
    </mxGraphModel>
  </diagram>
</mxfile>
